<svg width="20" height="20" viewBox="0 0 20 20" fill="none" xmlns="http://www.w3.org/2000/svg">
<path d="M18.1595 2.51038H6.86132C5.84648 2.51038 5.02081 3.33604 5.02081 4.35213C5.02081 5.36698 5.84648 6.19264 6.86132 6.19264H18.1594C19.1743 6.19264 20 5.36698 20 4.35213C20 3.336 19.1743 2.51038 18.1595 2.51038Z" fill="white"/>
<path d="M1.84117 2.51038C0.825977 2.51038 0 3.33631 0 4.35151C0 5.3667 0.825977 6.19264 1.84117 6.19264C2.85637 6.19264 3.6823 5.3667 3.6823 4.35151C3.6823 3.33631 2.85637 2.51038 1.84117 2.51038Z" fill="white"/>
<path d="M1.84117 8.15881C0.825977 8.15881 0 8.98475 0 9.99995C0 11.0151 0.825977 11.8411 1.84117 11.8411C2.85637 11.8411 3.6823 11.0151 3.6823 9.99995C3.6823 8.98475 2.85637 8.15881 1.84117 8.15881Z" fill="white"/>
<path d="M1.84117 13.8073C0.825977 13.8073 0 14.6332 0 15.6484C0 16.6636 0.825977 17.4895 1.84117 17.4895C2.85637 17.4895 3.6823 16.6636 3.6823 15.6484C3.6823 14.6332 2.85637 13.8073 1.84117 13.8073Z" fill="white"/>
<path d="M18.1595 8.15881H6.86132C5.84648 8.15881 5.02081 8.98448 5.02081 10.0006C5.02081 11.0154 5.84648 11.8411 6.86132 11.8411H18.1594C19.1743 11.8411 20 11.0154 20 10.0006C20 8.98444 19.1743 8.15881 18.1595 8.15881Z" fill="white"/>
<path d="M18.1595 13.8073H6.86132C5.84648 13.8073 5.02081 14.6329 5.02081 15.649C5.02081 16.6639 5.84648 17.4895 6.86132 17.4895H18.1594C19.1743 17.4895 20 16.6639 20 15.649C20 14.6329 19.1743 13.8073 18.1595 13.8073Z" fill="white"/>
</svg>
