<?xml version="1.0" encoding="UTF-8"?>
<svg id="Layer_3" data-name="Layer 3" xmlns="http://www.w3.org/2000/svg" xmlns:xlink="http://www.w3.org/1999/xlink" viewBox="0 0 39.999999999998181 40">
  <defs>
    <style>
      .cls-1 {
        fill: url(#linear-gradient-3);
        opacity: .6;
      }

      .cls-2 {
        fill: url(#linear-gradient-2);
      }

      .cls-3 {
        fill: url(#linear-gradient-4);
      }

      .cls-4 {
        fill: url(#linear-gradient-5);
      }

      .cls-5 {
        fill: url(#linear-gradient-6);
      }

      .cls-6 {
        fill: url(#linear-gradient);
      }
    </style>
    <linearGradient id="linear-gradient" x1="10.769085813764832" y1="22.309049617228084" x2="10.769085813766084" y2="34.490158778389855" gradientUnits="userSpaceOnUse">
      <stop offset=".036198099345502" stop-color="#eb5fff"/>
      <stop offset=".204521225504125" stop-color="#d978ff"/>
      <stop offset=".749138209469147" stop-color="#a2c5ff"/>
      <stop offset="1" stop-color="#8de4ff"/>
    </linearGradient>
    <linearGradient id="linear-gradient-2" x1="10.949857186615191" y1="22.973084627800745" x2="10.949857186616397" y2="34.697071254335967" gradientUnits="userSpaceOnUse">
      <stop offset=".141393893291952" stop-color="#b725cc"/>
      <stop offset=".72983999408776" stop-color="#6958c6"/>
      <stop offset="1" stop-color="#4b6dc4"/>
    </linearGradient>
    <linearGradient id="linear-gradient-3" x1="30.450393146618808" y1="18.053341980198638" x2="39.999999999998181" y2="18.053341980198638" gradientUnits="userSpaceOnUse">
      <stop offset="0" stop-color="#e397ff"/>
      <stop offset=".11162278747796" stop-color="#e7a9ff"/>
      <stop offset=".373702404379708" stop-color="#f1ceff"/>
      <stop offset=".617430529536163" stop-color="#f9e9ff"/>
      <stop offset=".833694501840968" stop-color="#fdf9ff"/>
      <stop offset="1" stop-color="#fff"/>
    </linearGradient>
    <linearGradient id="linear-gradient-4" x1="30.687164558268705" y1="18.050641334362808" x2="39.835198177640777" y2="18.050641334362808" gradientUnits="userSpaceOnUse">
      <stop offset="0" stop-color="#e597ff"/>
      <stop offset=".11162278747796" stop-color="#e9a9ff"/>
      <stop offset=".373702404379708" stop-color="#f2ceff"/>
      <stop offset=".617430529536163" stop-color="#f9e9ff"/>
      <stop offset=".833694501840968" stop-color="#fdf9ff"/>
      <stop offset="1" stop-color="#fff"/>
    </linearGradient>
    <linearGradient id="linear-gradient-5" x1="14.108974886008582" y1="6.840969316336668" x2="14.108974886011531" y2="35.512307317392725" gradientUnits="userSpaceOnUse">
      <stop offset="0" stop-color="#8de4ff"/>
      <stop offset="1" stop-color="#eb5fff"/>
    </linearGradient>
    <linearGradient id="linear-gradient-6" x1="14.10921955246522" y1="7.25757146538399" x2="14.109219552467851" y2="32.82673606291474" gradientUnits="userSpaceOnUse">
      <stop offset="0" stop-color="#00b7ff"/>
      <stop offset=".243583558761985" stop-color="#4489f3"/>
      <stop offset=".478663180211418" stop-color="#7e62e9"/>
      <stop offset=".677954060392951" stop-color="#a846e2"/>
      <stop offset=".833744464910057" stop-color="#c235de"/>
      <stop offset=".926813881836617" stop-color="#cc2fdd"/>
    </linearGradient>
  </defs>
  <path class="cls-6" d="M13.341814702258489,35c-.932580314678489,0-1.79354344325111-.50767290308977-2.248156885470962-1.325940718939819l-5.428894085627689-9.978452806390123,8.883644867401017.564431364310622,1.292223140539136,7.73964683622944c.196168814109114,1.240803027109905-.504434093410964,2.443767080089856-1.667434919902007,2.86157241959063-.275570476958819.093020811439601-.551140953917638.138742905199251-.831382116939494.138742905199251Z"/>
  <path class="cls-2" d="M15.368650584698116,32.080553867720482c.159484467421862,1.000959112890087-.414523386960354,1.985757830570037-1.355082790298184,2.324830512920016-.956614886650641.322813748160115-2.008784225410636-.080801976039766-2.503001193079399-.968736861460457l-5.006002386180626-9.202458219469918,7.636571692008147.484417700240556,1.227514677550062,7.361946867769802Z"/>
  <path class="cls-1" d="M39.999999999998181,18.050867353110334c0,5.117819791889815-3.332047967000108,9.476889320990267-7.923429660258989,10.929846804699991-.127568112740846.032320790420272-.255136225488968.064641580830539-.366746160889306.064641580830539-.685520483821165,0-1.259431032231078-.56512113727058-1.259431032231078-1.291649148620309,0-.565022598279938.350690677591047-1.065502154719979.876823999951739-1.243069424010173,3.555170531839394-1.130143735540514,6.122004434277187-4.504414546980115,6.122004434277187-8.459769812900049,0-3.971614200129807-2.566833902437793-7.329724616360181-6.122004434277187-8.475930208110185-.526133322360693-.16150541306979-.876823999951739-.678145364719967-.876823999951739-1.227007567799774,0-.871873029220296.813088596562011-1.485376813109724,1.626177193120384-1.227007567789769,4.591381693258882,1.453056022699457,7.923429660258989,5.795866617610045,7.923429660258989,10.929945343699728Z"/>
  <path class="cls-3" d="M34.738958694289977,18.050867353110334c0,1.985757830570037-.924698531969625,3.761627601429609-2.375433080349467,4.875610941769992-.797130419221503.613503783890337-1.913132467321702.016160395200131-1.913132467321702-.984798717679951v-7.797883382389955c0-.984798717679951,1.116002048100199-1.582142106360152,1.913132467321702-.96863832245981,1.450734548379842,1.113983340339473,2.375433080349467,2.889853111199955,2.375433080349467,4.875709480759724Z"/>
  <path class="cls-4" d="M25.706677572377885,31.093125919690465c-.541799581809755,0-1.06180262873022-.178158503250415-1.50551780349997-.513979398780066l-6.694650005218136-5.176056338020317-3.394031863121199-.20023123817009-7.937052494558884-.501366407399473C2.709776356759903,24.474458692460757-.000000000001819,21.55297456380049-.000000000001819,18.051292831610226-.000000000001819,16.348538995170202.635213302817647,14.729346226620692,1.788094309527878,13.488543199500782c1.158330140442558-1.245532898879901,2.715225490490411-1.988122766450033,4.385774201102322-2.089026697500231l11.332641253029578-.717363884799852,6.691536214519147-5.157136850950337c.443715174758836-.343704015140247.966832012389204-.525015766250363,1.511745384901587-.525015766250363,1.382523070849857,0,2.508158408938471,1.139899096080626,2.508158408938471,2.539941139380062v21.021126760560037c0,1.396888795459745-1.125635338088614,2.532058019750366-2.511272199641098,2.532058019750366Z"/>
  <path class="cls-5" d="M27.740130260050137,7.540698128810618v21.0202399096097c0,1.695264872810185-1.913132467332616,2.647742800079868-3.252257080301206,1.630623291980555l-6.807524918098352-5.263164809750378-3.539212354502524-.209789520699815-7.636571692008147-.484417700240556-.302913451549102-.016160395209226c-3.204479854251986-.209789520700724-5.723341918710503-2.906013506400996-5.723341918710503-6.167161551390564,0-1.63062329198965.637645951810555-3.132061961319778,1.657996241847286-4.229884906450025,1.036308467369963-1.113983340340383,2.471084838412935-1.840511351690111,4.065345676863217-1.937375183940276l11.478697498059773-.726528011349728,6.807524918098352-5.247004414550247c1.33912461296859-1.033279903299444,3.252257080301206-.064543041839897,3.252257080301206,1.63062329199056Z"/>
</svg>