<?xml version="1.0" encoding="UTF-8"?>
<svg id="Layer_3" data-name="Layer 3" xmlns="http://www.w3.org/2000/svg" xmlns:xlink="http://www.w3.org/1999/xlink" viewBox="0 0 39.999999999999091 40">
  <defs>
    <style>
      .cls-1 {
        fill: url(#linear-gradient-2);
      }

      .cls-2 {
        fill: url(#linear-gradient-4);
      }

      .cls-3 {
        fill: url(#linear-gradient-3);
      }

      .cls-4 {
        fill: url(#linear-gradient-5);
      }

      .cls-5 {
        fill: url(#linear-gradient);
      }
    </style>
    <linearGradient id="linear-gradient" x1="22.692315249641069" y1="20.000836400140543" x2="39.999999999999091" y2="20.000836400140543" gradientUnits="userSpaceOnUse">
      <stop offset=".036198099345502" stop-color="#eb5fff"/>
      <stop offset=".204521225504125" stop-color="#d978ff"/>
      <stop offset=".749138209469147" stop-color="#a2c5ff"/>
      <stop offset="1" stop-color="#8de4ff"/>
    </linearGradient>
    <linearGradient id="linear-gradient-2" x1="19.979396440798155" y1="20.000109735436126" x2="36.416187420327333" y2="20.000109735436126" gradientUnits="userSpaceOnUse">
      <stop offset=".141393893291952" stop-color="#b725cc"/>
      <stop offset=".72983999408776" stop-color="#6958c6"/>
      <stop offset="1" stop-color="#4b6dc4"/>
    </linearGradient>
    <linearGradient id="linear-gradient-3" x1="14.414949010667442" y1="8.290493671151125" x2="14.414949010669849" y2="31.689612876095953" gradientTransform="translate(-5.585050989330739 34.414949010669261) rotate(-90)" gradientUnits="userSpaceOnUse">
      <stop offset="0" stop-color="#8de4ff"/>
      <stop offset="1" stop-color="#eb5fff"/>
    </linearGradient>
    <linearGradient id="linear-gradient-4" x1="14.415022562669037" y1="9.22896913013119" x2="14.415022562671345" y2="31.668006432962244" gradientUnits="userSpaceOnUse">
      <stop offset="0" stop-color="#00b7ff"/>
      <stop offset="1" stop-color="#cc2fdd"/>
    </linearGradient>
    <linearGradient id="linear-gradient-5" x1="15.116634737020831" y1="30.627694655151572" x2="15.116634737022983" y2="9.713007681072412" gradientUnits="userSpaceOnUse">
      <stop offset=".003147589554627" stop-color="#f2b6ff"/>
      <stop offset=".224446004943834" stop-color="#f6ceff"/>
      <stop offset=".525446176864824" stop-color="#fbe9ff"/>
      <stop offset=".793665249512584" stop-color="#fdf9ff"/>
      <stop offset="1" stop-color="#fff"/>
    </linearGradient>
  </defs>
  <path class="cls-5" d="M37.97143025564128,30.303613248580405c-.351325329620522,0-.7010787338113-.102040816330373-1.012319965420829-.292740046839754l-13.252903149739723-8.1415189026402c-.635057866509669-.391435262629784-1.013891890839659-1.090665774509944-1.013891890839659-1.870190699230079.000785962709415-.779524924720135.379619987039405-1.477082636330124,1.013891890839659-1.866845098689737l13.253689112449138-8.143191702910372c.310455268900114-.190699230520295.660208673090892-.291067246569582,1.011534002711414-.291067246569582,1.118424930738911,0,2.02856974435781.96855135496935,2.02856974435781,2.159585145529491v16.284710605549662c0,1.19103379056105-.909358850918579,2.161257945800571-2.02856974435781,2.161257945800571Z"/>
  <path class="cls-1" d="M23.840273553229963,18.642496681900411l13.250026999790862-8.140822586939976c1.061654390168769-.6522809379303,2.42750006454844.111587184560449,2.42750006454844,1.357613053530258v16.281645173889956c0,1.246025868969809-1.365845674379671,2.009893991459649-2.42750006454844,1.357613053530258l-13.250026999790862-8.140822586940885c-1.012351886920442-.621989457609743-1.012351886920442-2.093236649449864,0-2.715226107069611Z"/>
  <rect class="cls-3" x="1.914949010669261" y="5.585050989329829" width="25" height="28.829898021340341" rx="4.533933846780201" ry="4.533933846780201" transform="translate(34.414949010669261 5.585050989330737) rotate(90)"/>
  <rect class="cls-2" x=".482914620760312" y="8.012993304740121" width="27.86421588381927" height="23.974232861390192" rx="4.036091235009735" ry="4.036091235009735"/>
  <path class="cls-4" d="M20.37669341909077,19.042743015500491l-9.343704271890601-5.740776134520274c-.748661467690908-.459977944669845-1.711833698400369.078689473840313-1.711833698400369.957366719930178v11.481552269049644c0,.878677246089865.963172230709461,1.417344664600023,1.711833698409464.957366719930178l9.343704271881506-5.74077613451027c.71389414153964-.438616883739087.71389414153964-1.476116556129455,0-1.914733439879456Z"/>
</svg>