<svg width="15" height="14" viewBox="0 0 15 14" fill="none" xmlns="http://www.w3.org/2000/svg">
<g clip-path="url(#clip0_8_9313)">
<path d="M13.056 1.19928L0.377253 6.10557C0.36971 6.10848 0.362397 6.11195 0.355378 6.11596C0.252565 6.17421 -0.464935 6.61307 0.546784 7.00655L0.557175 7.01038L3.5762 7.98573C3.59923 7.99321 3.62362 7.99557 3.64766 7.99264C3.6717 7.98971 3.69481 7.98157 3.71538 7.96878L11.2035 3.29682C11.2218 3.28536 11.2423 3.27765 11.2636 3.27413C11.3678 3.2569 11.6678 3.22464 11.478 3.46553C11.2633 3.73897 6.1487 8.32233 5.58104 8.83065C5.54831 8.86004 5.52806 8.90083 5.52444 8.94467L5.27671 11.8978C5.27667 11.9279 5.28365 11.9575 5.29708 11.9845C5.31052 12.0114 5.33003 12.0348 5.35409 12.0528C5.38822 12.0743 5.42836 12.0843 5.46859 12.0812C5.50881 12.0782 5.54699 12.0623 5.57749 12.0359L7.37124 10.4327C7.39958 10.4074 7.43572 10.3925 7.47367 10.3906C7.51162 10.3887 7.5491 10.3998 7.57987 10.4221L10.7094 12.6943L10.7195 12.7012C10.7952 12.7479 11.6133 13.224 11.8496 12.1608L14.0098 1.88917C14.0128 1.85663 14.042 1.49897 13.7864 1.2876C13.5178 1.06667 13.1378 1.17823 13.0806 1.19026C13.0722 1.19261 13.064 1.19562 13.056 1.19928Z" fill="white"/>
</g>
<defs>
<clipPath id="clip0_8_9313">
<rect width="14" height="14" fill="white" transform="translate(0.013031)"/>
</clipPath>
</defs>
</svg>
